<svg id="svg" style="border: 0px solid red;" viewBox="0,0,600,600" width="100%" height="100%" version="1.1" xmlns="http://www.w3.org/2000/svg">
	<title>圆型煤场</title>
	<defs>
		<filter id="shadow">
			<feGaussianBlur in="SourceAlpha" stdDeviation="20" result="blur"></feGaussianBlur>
			<feOffset in="blur" dx="0" dy="0" result="offsetBlur"></feOffset>
			<feMerge>
				<feMergeNode in="offsetBlur"></feMergeNode>
				<feMergeNode in="SourceGraphic"></feMergeNode>
			</feMerge>
		</filter>
	</defs>
	<g class="background"></g>
	
	<g transform="translate(280 550)" style="fill:#000;font-size:30px;">
		<g transform="translate(-100 0)">
			<path id="rect" transform="rotate(180 25 15)" d="M0,10L30,10L30,0L50,15L30,30L30,20L0,20z" class="btn_left">
			</path>
		</g>
		<g transform="translate(100 0)">
			<path id="rect" d="M0,10L30,10L30,0L50,15L30,30L30,20L0,20z" class="btn_right">
			</path>
		</g>
	</g>	
	
	<g transform="translate(250 50)" style="fill:#000;font-size:30px;">
		<text class="title">#1煤场</text>
	</g>
	<g class="kdp" transform="translate(300 400) scale(1 0.35)">
	<g class="kdptransform" transform="rotate(0 0 0)">
		<circle style="filter:url(#shadow)" cx="0" cy="0" r="170" stroke="#000" stroke-width="2" fill="rgba(0,0,0,0.9)" transform="scale(1,1)"></circle>
		
		<g style="fill:#fff;font-size:30px;">
			<text transform="rotate(0 0 0)" x="-8" y="-240" class="kdLabel">0</text>
			<text transform="rotate(30 0 0)" x="-17" y="-240" class="kdLabel">30</text>
			<text transform="rotate(60 0 0)" x="-17" y="-240" class="kdLabel">60</text>
			<text transform="rotate(90 0 0)" x="-17" y="-240" class="kdLabel">90</text>
			<text transform="rotate(120 0 0)" x="-26" y="-240" class="kdLabel">120</text>
			<text transform="rotate(150 0 0)" x="-26" y="-240" class="kdLabel">150</text>
			<text transform="rotate(180 0 0)" x="-26" y="-240" class="kdLabel">180</text>
			<text transform="rotate(210 0 0)" x="-26" y="-240" class="kdLabel">210</text>
			<text transform="rotate(240 0 0)" x="-26" y="-240" class="kdLabel">240</text>
			<text transform="rotate(270 0 0)" x="-26" y="-240" class="kdLabel">270</text>
			<text transform="rotate(300 0 0)" x="-26" y="-240" class="kdLabel">300</text>
			<text transform="rotate(330 0 0)" x="-26" y="-240" class="kdLabel">330</text>
		</g>
		
		<g class="kdpLineBox">
			<line transform="rotate(0 0 0)" y1="-220" y2="-180"></line>
			<line transform="rotate(10 0 0)" y1="-200" y2="-180"></line>
			<line transform="rotate(20 0 0)" y1="-200" y2="-180"></line>
			<line transform="rotate(30 0 0)" y1="-220" y2="-180"></line>
			<line transform="rotate(40 0 0)" y1="-200" y2="-180"></line>
			<line transform="rotate(50 0 0)" y1="-200" y2="-180"></line>
			<line transform="rotate(60 0 0)" y1="-220" y2="-180"></line>
			<line transform="rotate(70 0 0)" y1="-200" y2="-180"></line>
			<line transform="rotate(80 0 0)" y1="-200" y2="-180"></line>
			<line transform="rotate(90 0 0)" y1="-220" y2="-180"></line>
			<line transform="rotate(100 0 0)" y1="-200" y2="-180"></line>
			<line transform="rotate(110 0 0)" y1="-200" y2="-180"></line>
			<line transform="rotate(120 0 0)" y1="-220" y2="-180"></line>
			<line transform="rotate(130 0 0)" y1="-200" y2="-180"></line>
			<line transform="rotate(140 0 0)" y1="-200" y2="-180"></line>
			<line transform="rotate(150 0 0)" y1="-220" y2="-180"></line>
			<line transform="rotate(160 0 0)" y1="-200" y2="-180"></line>
			<line transform="rotate(170 0 0)" y1="-200" y2="-180"></line>
			<line transform="rotate(180 0 0)" y1="-220" y2="-180"></line>
			<line transform="rotate(190 0 0)" y1="-200" y2="-180"></line>
			<line transform="rotate(200 0 0)" y1="-200" y2="-180"></line>
			<line transform="rotate(210 0 0)" y1="-220" y2="-180"></line>
			<line transform="rotate(220 0 0)" y1="-200" y2="-180"></line>
			<line transform="rotate(230 0 0)" y1="-200" y2="-180"></line>
			<line transform="rotate(240 0 0)" y1="-220" y2="-180"></line>
			<line transform="rotate(250 0 0)" y1="-200" y2="-180"></line>
			<line transform="rotate(260 0 0)" y1="-200" y2="-180"></line>
			<line transform="rotate(270 0 0)" y1="-220" y2="-180"></line>
			<line transform="rotate(280 0 0)" y1="-200" y2="-180"></line>
			<line transform="rotate(290 0 0)" y1="-200" y2="-180"></line>
			<line transform="rotate(300 0 0)" y1="-220" y2="-180"></line>
			<line transform="rotate(310 0 0)" y1="-200" y2="-180"></line>
			<line transform="rotate(320 0 0)" y1="-200" y2="-180"></line>
			<line transform="rotate(330 0 0)" y1="-220" y2="-180"></line>
			<line transform="rotate(340 0 0)" y1="-200" y2="-180"></line>
			<line transform="rotate(350 0 0)" y1="-220" y2="-180"></line>
		</g>
	</g>
	</g>
	
  	<g class="quotesDonut" transform="translate(300 300)"><path class="outerSlice" _id="drzym" d="M 171.5 90 A 171.5 59.5 0 0 1 160.44565797432728 111.01613194017867 L 160.44565797432728 21.016131940178667 A 171.5 59.5 0 0 0 171.5 0 z" style="fill: rgb(187, 11, 0);"></path><path class="outerSlice" _id="drzym" d="M 160.44565797432728 111.01613194017867 A 171.5 59.5 0 0 1 15.600892656222687 149.25330583820596 L 15.600892656222687 59.25330583820595 A 171.5 59.5 0 0 0 160.44565797432728 21.016131940178667 z" style="fill: rgb(185, 74, 0);"></path><path class="outerSlice" _id="drzym" d="M 15.600892656222687 149.25330583820596 A 171.5 59.5 0 0 1 -98.6241455739772 138.67728802858696 L -98.6241455739772 48.67728802858695 A 171.5 59.5 0 0 0 15.600892656222687 59.25330583820595 z" style="fill: rgb(184, 114, 1);"></path><path class="outerSlice" _id="drzym" d="M -98.6241455739772 138.67728802858696 A 171.5 59.5 0 0 1 -110.41259319960064 135.52877070247192 L -110.41259319960064 45.528770702471924 A 171.5 59.5 0 0 0 -98.6241455739772 48.67728802858695 z" style="fill: rgb(182, 152, 1);"></path><path class="outerSlice" _id="drzym" d="M -110.41259319960064 135.52877070247192 A 171.5 59.5 0 0 1 -156.75233558689877 114.13895010606028 L -156.75233558689877 24.138950106060282 A 171.5 59.5 0 0 0 -110.41259319960064 45.528770702471924 z" style="fill: rgb(180, 186, 0);"></path><path class="outerSlice" _id="drzym" d="M -156.75233558689877 114.13895010606028 A 171.5 59.5 0 0 1 -170.9038876350924 94.95662713393392 L -170.9038876350924 4.956627133933916 A 171.5 59.5 0 0 0 -156.75233558689877 24.138950106060282 z" style="fill: rgb(128, 161, 7);"></path><path class="outerSlice" _id="drzym" d="M -170.9038876350924 94.95662713393392 A 171.5 59.5 0 0 1 -171.5 90.00000000000001 L -171.5 7.286648454926752e-15 A 171.5 59.5 0 0 0 -170.9038876350924 4.956627133933916 z" style="fill: rgb(4, 152, 16);"></path><path class="outerSlice" _id="drzym" d="M -171.5 90.00000000000001 A 171.5 59.5 0 0 1 -171.5 90.00000000000001 L -171.5 7.286648454926752e-15 A 171.5 59.5 0 0 0 -171.5 7.286648454926752e-15 z" style="fill: rgb(10, 103, 149);"></path><path class="outerSlice" _id="drzym" d="M -171.5 90.00000000000001 A 171.5 59.5 0 0 1 -171.5 90.00000000000001 L -171.5 7.286648454926752e-15 A 171.5 59.5 0 0 0 -171.5 7.286648454926752e-15 z" style="fill: rgb(9, 59, 151);"></path><path class="outerSlice" _id="drzym" d="M -171.5 90.00000000000001 A 171.5 59.5 0 0 1 -171.5 90.00000000000001 L -171.5 7.286648454926752e-15 A 171.5 59.5 0 0 0 -171.5 7.286648454926752e-15 z" style="fill: rgb(31, 10, 151);"></path><path class="outerSlice" _id="drzym" d="M -171.5 90.00000000000001 A 171.5 59.5 0 0 1 -171.5 90.00000000000001 L -171.5 7.286648454926752e-15 A 171.5 59.5 0 0 0 -171.5 7.286648454926752e-15 z" style="fill: rgb(99, 8, 149);"></path><path class="innerSlice" _id="drzym" d="M 0 0 A 0 0 0 0 1 0 0 L 0 90 A 0 0 0 0 0 0 90 z" style="fill: rgb(201, 12, 0);"></path><path class="innerSlice" _id="drzym" d="M 0 0 A 0 0 0 0 1 0 0 L 0 90 A 0 0 0 0 0 0 90 z" style="fill: rgb(199, 79, 0);"></path><path class="innerSlice" _id="drzym" d="M 0 0 A 0 0 0 0 1 0 0 L 0 90 A 0 0 0 0 0 0 90 z" style="fill: rgb(197, 122, 1);"></path><path class="innerSlice" _id="drzym" d="M 0 0 A 0 0 0 0 1 0 0 L 0 90 A 0 0 0 0 0 0 90 z" style="fill: rgb(196, 164, 2);"></path><path class="innerSlice" _id="drzym" d="M 0 0 A 0 0 0 0 1 0 0 L 0 90 A 0 0 0 0 0 0 90 z" style="fill: rgb(193, 199, 0);"></path><path class="innerSlice" _id="drzym" d="M 0 0 A 0 0 0 0 1 0 0 L 0 90 A 0 0 0 0 0 0 90 z" style="fill: rgb(137, 173, 7);"></path><path class="innerSlice" _id="drzym" d="M 0 0 A 0 0 0 0 1 0 0 L 0 90 A 0 0 0 0 0 0 90 z" style="fill: rgb(4, 164, 17);"></path><path class="innerSlice" _id="drzym" d="M 0 0 A 0 0 0 0 1 0 0 L 0 90 A 0 0 0 0 0 0 90 z" style="fill: rgb(11, 111, 160);"></path><path class="innerSlice" _id="drzym" d="M 0 0 A 0 0 0 0 1 0 0 L 0 90 A 0 0 0 0 0 0 90 z" style="fill: rgb(10, 63, 162);"></path><path class="innerSlice" _id="drzym" d="M 0 0 A 0 0 0 0 1 0 0 L 0 90 A 0 0 0 0 0 0 90 z" style="fill: rgb(33, 11, 162);"></path><path class="innerSlice" _id="drzym" d="M 0 0 A 0 0 0 0 1 0 0 L 0 90 A 0 0 0 0 0 0 90 z" style="fill: rgb(107, 9, 160);"></path><path class="topSlice" _id="drzym" d="M 172 0 A 172 60 0 0 1 160.91342957192006 21.19273809093647 L 0 0 A 0 0 0 0 0 0 0 z" style="fill: rgb(255, 18, 3); stroke: rgb(255, 18, 3);"></path><path class="topSlice" _id="drzym" d="M 160.91342957192006 21.19273809093647 A 172 60 0 0 1 15.646376308281644 59.7512327780228 L 0 0 A 0 0 0 0 0 0 0 z" style="fill: rgb(255, 102, 0); stroke: rgb(255, 102, 0);"></path><path class="topSlice" _id="drzym" d="M 15.646376308281644 59.7512327780228 A 172 60 0 0 1 -98.91167952608792 49.08634086916331 L 0 0 A 0 0 0 0 0 0 0 z" style="fill: rgb(253, 157, 1); stroke: rgb(253, 157, 1);"></path><path class="topSlice" _id="drzym" d="M -98.91167952608792 49.08634086916331 A 172 60 0 0 1 -110.73449580368111 45.911365414257396 L 0 0 A 0 0 0 0 0 0 0 z" style="fill: rgb(251, 210, 2); stroke: rgb(251, 210, 2);"></path><path class="topSlice" _id="drzym" d="M -110.73449580368111 45.911365414257396 A 172 60 0 0 1 -157.20933948073812 24.341798426279276 L 0 0 A 0 0 0 0 0 0 0 z" style="fill: rgb(247, 255, 1); stroke: rgb(247, 255, 1);"></path><path class="topSlice" _id="drzym" d="M -157.20933948073812 24.341798426279276 A 172 60 0 0 1 -171.40214969816847 4.998279462790503 L 0 0 A 0 0 0 0 0 0 0 z" style="fill: rgb(176, 222, 9); stroke: rgb(176, 222, 9);"></path><path class="topSlice" _id="drzym" d="M -171.40214969816847 4.998279462790503 A 172 60 0 0 1 -168.93985777770524 -11.267627909303844 L 0 0 A 0 0 0 0 0 0 0 z" style="fill: rgb(5, 210, 22); stroke: rgb(5, 210, 22);"></path><path class="topSlice" _id="drzym" d="M -168.93985777770524 -11.267627909303844 A 172 60 0 0 1 -141.62751102825203 -34.04631168916884 L 0 0 A 0 0 0 0 0 0 0 z" style="fill: rgb(14, 142, 206); stroke: rgb(14, 142, 206);"></path><path class="topSlice" _id="drzym" d="M -141.62751102825203 -34.04631168916884 A 172 60 0 0 1 28.708625225517167 -59.15832191361842 L 0 0 A 0 0 0 0 0 0 0 z" style="fill: rgb(13, 81, 208); stroke: rgb(13, 81, 208);"></path><path class="topSlice" _id="drzym" d="M 28.708625225517167 -59.15832191361842 A 172 60 0 0 1 37.050062359586036 -58.59145706869412 L 0 0 A 0 0 0 0 0 0 0 z" style="fill: rgb(43, 14, 208); stroke: rgb(43, 14, 208);"></path><path class="topSlice" _id="drzym" d="M 37.050062359586036 -58.59145706869412 A 172 60 0 0 1 172 -1.469576158976824e-14 L 0 0 A 0 0 0 0 0 0 0 z" style="fill: rgb(137, 11, 206); stroke: rgb(137, 11, 206);"></path></g>
  	
  	<g class="legends" transform="translate(0 500)">
  		<!--
  		<g class="legend" x="0" y="0" fill="#cd00dd" transform="translate(0 0)">
  			<rect x="0" y="0" width="20" height="15"></rect>
  			<text x="30" y="12" >tttt<text>
  		</g>
  		<g class="legend" x="0" y="0" fill="#cd0000" transform="translate(0 20)">
  			<rect x="0" y="0" width="20" height="15"></rect>
  			<text x="30" y="12" >tttt<text>
  		</g>
  		<g class="legend" x="0" y="0" fill="#cddd00" transform="translate(0 40)">
  			<rect x="0" y="0" width="20" height="15"></rect>
  			<text x="30" y="12" >tttt<text>
  		</g>
  		-->
  	</g>
  	
	<!--
	<g class="topg" transform="translate(130 400)">
		<path transform="rotate(0 170 0) scale(1,1) skewX(60)" d="M0 0 C0,-200 340,-200 340,0" stroke="#ff0000" fill="none" style="stroke-width: 1px;"></path>
		<path transform="rotate(10 170 0) scale(0.9,1)" d="M0 0 C0,-200 340,-200 340,0" stroke="#ff0000" fill="none" style="stroke-width: 1px;"></path>
		<path transform="rotate(0 170 0) scale(0.8,1)" d="M0 0 C0,-200 340,-200 340,0" stroke="#ff0000" fill="none" style="stroke-width: 1px;"></path>
		<path transform="rotate(0 170 0) scale(0.7,1)" d="M0 0 C0,-200 340,-200 340,0" stroke="#ff0000" fill="none" style="stroke-width: 1px;"></path>
	</g>
	-->
</svg>